# xmcd
#
# Track frame offsets:
#	150
#	44660
#	93622
#	122732
#	131295
#	148032
#	197710
#	214357
#	229850
#	253330
#	281275
#	296680
#
# Disc length: 4126 seconds
#
# Revision: 0
# Processed by: cddbd v1.5.1PL0 Copyright (c) Steve Scherf et al.
# Submitted via: dBpowerAMP V4.0
#
DISCID=c3101c0c
DTITLE=Jimmi Hendrix - Hey Joe
DYEAR=1900
DGENRE=Blues
TTITLE0=Voodoo Chile
TTITLE1=Fire
TTITLE2=Foxy Lady
TTITLE3=Hey Joe
TTITLE4=Purple Haze
TTITLE5=Little Wing
TTITLE6=The Wind Cries Mary
TTITLE7=Red House
TTITLE8=Wild Thing
TTITLE9=Sgt Peppers Lonely Hearts Club Band
TTITLE10=Like A Roling Stone
TTITLE11=Sunshine of your Love
EXTD=
EXTT0=
EXTT1=
EXTT2=
EXTT3=
EXTT4=
EXTT5=
EXTT6=
EXTT7=
EXTT8=
EXTT9=
EXTT10=
EXTT11=
PLAYORDER=
